<svg xmlns="http://www.w3.org/2000/svg" width="1200" height="420" viewBox="0 0 1200 420" role="img" aria-labelledby="title desc">
<title id="title">Javier Valencia — software, datos y gestión ambiental</title><desc id="desc">Banner técnico con una red de datos, capas ambientales y módulos de producto.</desc>
<defs><linearGradient id="b" x1="0" y1="0" x2="1" y2="1"><stop stop-color="#07110f"/><stop offset="1" stop-color="#0b1d1a"/></linearGradient><linearGradient id="a"><stop stop-color="#46d7a1"/><stop offset=".55" stop-color="#2bb7b0"/><stop offset="1" stop-color="#6aa9ff"/></linearGradient><radialGradient id="g"><stop stop-color="#46d7a1" stop-opacity=".22"/><stop offset="1" stop-color="#46d7a1" stop-opacity="0"/></radialGradient></defs>
<style>.s{font-family:Inter,ui-sans-serif,system-ui,-apple-system,"Segoe UI",sans-serif}.m{font-family:ui-monospace,SFMono-Regular,Menlo,monospace}.path{stroke-dasharray:7 11;animation:f 10s linear infinite}.node{transform-box:fill-box;transform-origin:center;animation:p 3.8s ease-in-out infinite}.float{animation:y 6s ease-in-out infinite}@keyframes f{to{stroke-dashoffset:-180}}@keyframes p{50%{transform:scale(1.25);opacity:1}}@keyframes y{50%{transform:translateY(-8px)}}@media(prefers-reduced-motion:reduce){.path,.node,.float{animation:none!important}}</style>
<rect width="1200" height="420" rx="28" fill="url(#b)"/><rect x="1" y="1" width="1198" height="418" rx="27" fill="none" stroke="#20453d"/><circle cx="1010" cy="105" r="260" fill="url(#g)"/>
<g opacity=".35" stroke="#20453d"><path d="M0 92H1200M0 330H1200"/><path d="M70 0V420M1130 0V420"/></g>
<g class="s"><rect x="70" y="66" width="236" height="34" rx="17" fill="#46d7a1" fill-opacity=".11" stroke="#46d7a1" stroke-opacity=".38"/><circle cx="90" cy="83" r="5" fill="#46d7a1" class="node"/><text x="106" y="89" fill="#8bf0c9" font-size="14" font-weight="700" letter-spacing="1.6">COLOMBIA · PRODUCT BUILDER</text><text x="70" y="179" fill="#edf8f4" font-size="63" font-weight="780">Javier Valencia</text><text x="70" y="225" fill="#a7bbb4" font-size="24">Software aplicado, análisis de datos y gestión ambiental.</text><text x="70" y="287" fill="#d7e9e3" font-size="17">Transformo procesos complejos en productos claros, trazables y útiles.</text></g>
<g class="m" font-size="13"><rect x="70" y="326" width="116" height="34" rx="7" fill="#10231f" stroke="#2b5a50"/><text x="90" y="348" fill="#73e3ba">PYTHON</text><rect x="198" y="326" width="132" height="34" rx="7" fill="#10231f" stroke="#2b5a50"/><text x="218" y="348" fill="#62cac4">TYPESCRIPT</text><rect x="342" y="326" width="105" height="34" rx="7" fill="#10231f" stroke="#2b5a50"/><text x="362" y="348" fill="#f2b95f">DATA</text></g>
<g transform="translate(790 95)" class="float"><path d="M36 188C96 112 126 78 199 42M36 188C124 187 174 200 263 152M199 42C218 94 235 120 263 152" fill="none" stroke="#2bb7b0" stroke-width="2" class="path"/><g fill="#0e211d" stroke="#46d7a1"><circle cx="36" cy="188" r="24"/><circle cx="199" cy="42" r="24"/><circle cx="263" cy="152" r="24"/></g><g fill="#46d7a1"><circle cx="36" cy="188" r="6" class="node"/><circle cx="199" cy="42" r="6" class="node"/><circle cx="263" cy="152" r="6" class="node"/></g><path d="M119 209c39-19 73-7 87 30-44 18-77 5-87-30Z" fill="#46d7a1" fill-opacity=".12" stroke="#46d7a1"/><path d="M130 207c25 8 43 17 63 31" fill="none" stroke="#46d7a1"/></g>
</svg>