<svg xmlns="http://www.w3.org/2000/svg" width="1200" height="360" viewBox="0 0 1200 360" role="img" aria-labelledby="title desc">
<title id="title">AppIndemnizaciones</title><desc id="desc">CETIL, IPC histórico, cálculo trazable y exportación Excel.</desc>
<defs>
  <linearGradient id="bg" x1="0" y1="0" x2="1" y2="1"><stop stop-color="#08110f"/><stop offset="1" stop-color="#0b1917"/></linearGradient>
  <linearGradient id="accent" x1="0" y1="0" x2="1" y2="1"><stop stop-color="#46d7a1"/><stop offset="1" stop-color="#2bb7b0"/></linearGradient>
  <radialGradient id="glow"><stop stop-color="#46d7a1" stop-opacity=".24"/><stop offset="1" stop-color="#46d7a1" stop-opacity="0"/></radialGradient>
  <filter id="soft"><feGaussianBlur stdDeviation="18"/></filter>
</defs>
<style>
  .sans{font-family:Inter,ui-sans-serif,system-ui,-apple-system,"Segoe UI",sans-serif} .mono{font-family:ui-monospace,SFMono-Regular,Menlo,monospace}
  .trace{stroke-dasharray:8 10;animation:flow 9s linear infinite} .rise{animation:rise 5s ease-in-out infinite} .pulse{transform-box:fill-box;transform-origin:center;animation:pulse 3.4s ease-in-out infinite} .blink{animation:blink 2.6s ease-in-out infinite}
  @keyframes flow{to{stroke-dashoffset:-180}} @keyframes rise{0%,100%{transform:translateY(0)}50%{transform:translateY(-6px)}} @keyframes pulse{0%,100%{opacity:.55;transform:scale(.96)}50%{opacity:1;transform:scale(1.04)}} @keyframes blink{0%,100%{opacity:.45}50%{opacity:1}}
  @media (prefers-reduced-motion:reduce){.trace,.rise,.pulse,.blink{animation:none!important}}
</style>
<rect width="1200" height="360" rx="24" fill="url(#bg)"/><rect x="1" y="1" width="1198" height="358" rx="23" fill="none" stroke="#20453d"/>
<circle cx="1020" cy="120" r="240" fill="url(#glow)" filter="url(#soft)"/>
<g opacity=".36" stroke="#20453d"><path d="M0 86H1200M0 274H1200"/><path d="M58 0V360M1142 0V360"/></g>
<g class="sans">
  <rect x="64" y="55" width="184" height="30" rx="15" fill="#46d7a1" fill-opacity=".12" stroke="#46d7a1" stroke-opacity=".38"/>
  <circle cx="82" cy="70" r="4" fill="#46d7a1" class="blink"/><text x="96" y="75" fill="#46d7a1" font-size="13" font-weight="700" letter-spacing="1.4">PROYECTO DESTACADO</text>
  <text x="64" y="146" fill="#eaf5f1" font-size="44" font-weight="760">AppIndemnizaciones</text>
  <text x="64" y="187" fill="#91aaa2" font-size="20">CETIL, IPC histórico, cálculo trazable y exportación Excel.</text>
</g>
<g transform="translate(790 53)"><rect width="335" height="254" rx="18" fill="#0c1b18" stroke="#2a554c"/><rect x="24" y="24" width="130" height="13" rx="6" fill="#214a40"/><rect x="24" y="52" width="286" height="1" fill="#20453d"/><g class="mono" font-size="12" fill="#91aaa2"><text x="25" y="84">CETIL / IPC</text><text x="25" y="145">TRAZABILIDAD</text><text x="25" y="207">LIQUIDACIÓN</text></g><path d="M132 80H292M132 141H292M132 203H292" stroke="#20453d" stroke-width="8" stroke-linecap="round"/><path d="M132 80H238M132 141H267M132 203H214" stroke="url(#accent)" stroke-width="8" stroke-linecap="round" class="rise"/><circle cx="292" cy="203" r="8" fill="#46d7a1" class="pulse"/></g>
</svg>